<svg width="115" height="50" viewBox="0 0 115 50" fill="none" xmlns="http://www.w3.org/2000/svg">
<path d="M0.119995 39V5.73602H19.944L19.128 11.352H7.992V20.184H17.688V25.8H7.992V39H0.119995Z" fill="#141414"/>
<path d="M29.5444 13.512V39H21.9604V13.512H29.5444ZM25.7044 0.0720215C27.0164 0.0720215 28.0884 0.488022 28.9204 1.32002C29.7844 2.12002 30.2164 3.14402 30.2164 4.39202C30.2164 5.64002 29.7844 6.68002 28.9204 7.51202C28.0884 8.31202 27.0164 8.71202 25.7044 8.71202C24.3924 8.71202 23.3204 8.31202 22.4884 7.51202C21.6564 6.68002 21.2404 5.64002 21.2404 4.39202C21.2404 3.14402 21.6564 2.12002 22.4884 1.32002C23.3204 0.488022 24.3924 0.0720215 25.7044 0.0720215Z" fill="#141414"/>
<path d="M42.2752 39.816C40.0672 39.816 38.3392 39.192 37.0912 37.944C35.8752 36.664 35.2672 34.856 35.2672 32.52V3.38402L42.8512 2.56802V32.232C42.8512 33.288 43.2832 33.816 44.1472 33.816C44.5952 33.816 45.0112 33.736 45.3952 33.576L46.8832 38.952C45.5072 39.528 43.9712 39.816 42.2752 39.816Z" fill="#141414"/>
<path d="M57.3412 13.512V39H49.7572V13.512H57.3412ZM53.5012 0.0720215C54.8132 0.0720215 55.8852 0.488022 56.7172 1.32002C57.5812 2.12002 58.0132 3.14402 58.0132 4.39202C58.0132 5.64002 57.5812 6.68002 56.7172 7.51202C55.8852 8.31202 54.8132 8.71202 53.5012 8.71202C52.1892 8.71202 51.1172 8.31202 50.2852 7.51202C49.4532 6.68002 49.0372 5.64002 49.0372 4.39202C49.0372 3.14402 49.4532 2.12002 50.2852 1.32002C51.1172 0.488022 52.1892 0.0720215 53.5012 0.0720215Z" fill="#141414"/>
<path d="M77.7041 12.696C80.9041 12.696 83.2881 13.88 84.8561 16.248C86.4241 18.616 87.2081 21.928 87.2081 26.184C87.2081 28.808 86.7921 31.16 85.9601 33.24C85.1601 35.288 83.9921 36.904 82.4561 38.088C80.9201 39.24 79.1281 39.816 77.0801 39.816C74.5201 39.816 72.4561 38.936 70.8881 37.176V48.84L63.3041 49.656V13.512H69.9761L70.3601 16.344C71.3521 15.096 72.4881 14.184 73.7681 13.608C75.0481 13 76.3601 12.696 77.7041 12.696ZM74.7761 34.248C77.8161 34.248 79.3361 31.592 79.3361 26.28C79.3361 23.272 79.0001 21.192 78.3281 20.04C77.6561 18.856 76.6481 18.264 75.3041 18.264C74.4401 18.264 73.6241 18.52 72.8561 19.032C72.1201 19.544 71.4641 20.28 70.8881 21.24V31.992C71.9121 33.496 73.2081 34.248 74.7761 34.248Z" fill="#141414"/>
<path d="M114.169 25.752C114.169 26.808 114.121 27.72 114.025 28.488H98.2327C98.4887 30.632 99.0967 32.136 100.057 33C101.017 33.864 102.345 34.296 104.041 34.296C105.065 34.296 106.057 34.12 107.017 33.768C107.977 33.384 109.017 32.808 110.137 32.04L113.257 36.264C110.281 38.632 106.969 39.816 103.321 39.816C99.1927 39.816 96.0247 38.6 93.8167 36.168C91.6087 33.736 90.5047 30.472 90.5047 26.376C90.5047 23.784 90.9687 21.464 91.8967 19.416C92.8247 17.336 94.1847 15.704 95.9767 14.52C97.7687 13.304 99.9127 12.696 102.409 12.696C106.089 12.696 108.969 13.848 111.049 16.152C113.129 18.456 114.169 21.656 114.169 25.752ZM106.729 23.592C106.665 19.688 105.289 17.736 102.601 17.736C101.289 17.736 100.265 18.216 99.5287 19.176C98.8247 20.136 98.3927 21.72 98.2327 23.928H106.729V23.592Z" fill="#141414"/>
</svg>
